# xmcd
#
# Track frame offsets:
#	150
#	11563
#	25956
#	41936
#	55809
#	66473
#	80043
#	93579
#	108217
#	120989
#	130682
#	145073
#	156664
#
# Disc length: 2302 seconds
#
# Revision: 0
# Processed by: cddbd v1.5.2PL0 Copyright (c) Steve Scherf et al.
# Submitted via: EasyCDDAExtractor 2010.6.0.0
#
DISCID=b408fc0d
DTITLE=John Williamson - Hilbilly Road
DYEAR=2008
DGENRE=Country
TTITLE0=Flowers On The Concrete
TTITLE1=Drink A Little Love
TTITLE2=Dark Irish Eyes
TTITLE3=Hillbilly Road
TTITLE4=Catch A Virgin
TTITLE5=Cydi
TTITLE6=Pmarra Knatcha (My Home In The Bush)
TTITLE7=Australia Is Another Word For Free
TTITLE8=Better Than A Picture
TTITLE9=Rivers, Wood 'n' Wire
TTITLE10=Beach of Love
TTITLE11=Tomorrow's Worries
TTITLE12=The Joy Is In The Journey
EXTD=
EXTT0=
EXTT1=
EXTT2=
EXTT3=
EXTT4=
EXTT5=
EXTT6=
EXTT7=
EXTT8=
EXTT9=
EXTT10=
EXTT11=
EXTT12=
PLAYORDER=
